<?xml version="1.0" encoding="iso-8859-1"?>
<!-- Uploaded to: SVG Repo, www.svgrepo.com, Generator: SVG Repo Mixer Tools -->
<svg height="800px" width="800px" version="1.1" id="Layer_1" xmlns="http://www.w3.org/2000/svg" xmlns:xlink="http://www.w3.org/1999/xlink" 
	 viewBox="0 0 512 512" xml:space="preserve">
<path style="fill:#EDEDED;" d="M512,256c0,141.384-114.616,256-256,256S0,397.384,0,256S114.616,0,256,0S512,114.616,512,256z"/>
<path style="fill:#C6C6C6;" d="M456.348,256c0,110.649-89.699,200.348-200.348,200.348S55.652,366.649,55.652,256
	S145.351,55.652,256,55.652S456.348,145.351,456.348,256z"/>
<path style="fill:#969696;" d="M400.696,256c0,79.913-64.782,144.696-144.696,144.696S111.304,335.913,111.304,256
	S176.087,111.304,256,111.304S400.696,176.087,400.696,256z"/>
<path style="fill:#EDEDED;" d="M317.96,256c0,34.219-27.74,61.96-61.96,61.96s-61.96-27.74-61.96-61.96s27.74-61.96,61.96-61.96
	S317.96,221.781,317.96,256z"/>
<path style="fill:#73A4BC;" d="M256,166.957c-49.178,0-89.043,39.866-89.043,89.043s39.866,89.043,89.043,89.043
	s89.043-39.866,89.043-89.043S305.178,166.957,256,166.957z M256,289.391c-18.442,0-33.391-14.949-33.391-33.391
	s14.949-33.391,33.391-33.391s33.391,14.949,33.391,33.391S274.442,289.391,256,289.391z"/>
<path style="fill:#98C7E5;" d="M338.956,288.351c-12.948,33.177-45.195,56.693-82.956,56.693s-70.008-23.516-82.956-56.693H247.7
	c2.653,0.679,5.435,1.041,8.3,1.041s5.646-0.362,8.3-1.041H338.956z"/>
<path style="fill:#FF6029;" d="M222.609,256c0,18.442,14.949,33.391,33.391,33.391V389.1c0,6.492-5.537,11.636-12.009,11.105
	C169.697,394.101,111.304,331.869,111.304,256s58.392-138.101,132.687-144.205c6.47-0.532,12.009,4.611,12.009,11.104v99.71
	C237.558,222.609,222.609,237.558,222.609,256z"/>
<path style="fill:#B7441C;" d="M247.7,288.351H114.938c-2.375-10.401-3.634-21.229-3.634-32.351c0-3.746,0.155-7.456,0.435-11.13
	h104.859c3.791,0,6.709,3.315,6.254,7.079c-0.16,1.328-0.244,2.68-0.244,4.051C222.609,271.576,233.274,284.66,247.7,288.351z"/>
<path style="fill:#FFBC00;" d="M256,55.652v166.957c-18.442,0-33.391,14.949-33.391,33.391H67.11
	c-6.369,0-11.488-5.337-11.122-11.696C62.043,139.099,149.277,55.652,256,55.652z M273.252,56.4
	c-5.688-0.485-11.439-0.748-17.252-0.748v166.957c1.052,0,2.094,0.049,3.121,0.144c7.627,0.708,14.131-5.525,14.131-13.184V56.4z"/>
<path style="fill:#E0A000;" d="M289.391,58.438V256c0-18.442-14.95-33.391-33.391-33.391S222.609,237.558,222.609,256V58.438
	c10.861-1.823,22.013-2.786,33.391-2.786l0,0l0,0l0,0l0,0C267.379,55.652,278.53,56.615,289.391,58.438z"/>
<path style="fill:#92B703;" d="M280.326,1.141c121.968,11.497,219.037,108.565,230.534,230.534
	c1.23,13.05-9.065,24.326-22.174,24.326H289.391c0-18.442-14.949-33.391-33.391-33.391V23.315
	C256,10.205,267.275-0.089,280.326,1.141z"/>
</svg>